<?xml version="1.0" encoding="UTF-8"?>
<svg xmlns="http://www.w3.org/2000/svg" xmlns:xlink="http://www.w3.org/1999/xlink" width="93pt" height="42.75pt" viewBox="0 0 93 42.75" version="1.2">
<defs>
<clipPath id="clip1">
  <path d="M 0.269531 0 L 92.730469 0 L 92.730469 42.5 L 0.269531 42.5 Z M 0.269531 0 "/>
</clipPath>
</defs>
<g id="surface1">
<g clip-path="url(#clip1)" clip-rule="nonzero">
<path style=" stroke:none;fill-rule:nonzero;fill:rgb(0%,0%,0%);fill-opacity:1;" d="M 90.9375 18.097656 L 65.042969 0.628906 C 63.285156 -0.503906 61.023438 -0.125 59.765625 1.632812 C 58.632812 3.394531 59.011719 5.65625 60.769531 6.910156 L 76.484375 17.46875 L 0.304688 17.46875 L 0.304688 25.007812 L 76.484375 25.007812 L 60.769531 35.5625 C 59.011719 36.695312 58.632812 39.082031 59.765625 40.84375 C 60.519531 41.972656 61.648438 42.476562 62.90625 42.476562 C 63.660156 42.476562 64.414062 42.226562 65.042969 41.847656 L 91.0625 24.378906 C 92.070312 23.625 92.699219 22.496094 92.699219 21.238281 C 92.699219 19.980469 92.070312 18.851562 90.9375 18.097656 Z M 90.9375 18.097656 "/>
</g>
</g>
</svg>
